<svg xmlns="http://www.w3.org/2000/svg" width="28.673" height="33.789" viewBox="0 0 28.673 33.789">
  <path id="Icon_awesome-itunes-note" data-name="Icon awesome-itunes-note" d="M28.515,28.846A4.738,4.738,0,0,1,24.4,32.43c-1.829.336-3.353.418-4.816-.762a3.674,3.674,0,0,1-.2-5.555c1.269-1.21,3.054-1.456,5.734-1.926a1.859,1.859,0,0,0,1.165-.553c.478-.538.329-.306.329-12.186,0-.836-.411-1.068-1.269-.918-.612.1-13.866,2.583-13.866,2.583-.762.164-1,.388-1,1.247,0,17.524.082,16.718-.187,17.883a4.346,4.346,0,0,1-2.255,2.949,8.693,8.693,0,0,1-4.734.777A3.813,3.813,0,0,1,1.128,29.5c1.269-1.21,3.054-1.456,5.734-1.926a1.859,1.859,0,0,0,1.165-.553c.754-.859.134-19.16.388-20.175a1.471,1.471,0,0,1,.53-.963,2.267,2.267,0,0,1,1-.411C25.178,2.623,27.037,2.257,27.3,2.257A1.175,1.175,0,0,1,28.65,3.571c.015,25.723.082,24.341-.134,25.275Z" transform="translate(0.001 -2.253)" fill="#f57261"/>
</svg>